# File created by Blade
# Date/Time:  Tue Apr 07 21:25:57 2015
# Frame Rate: 120.000 fps
#------------------------------------------------------
:FULLY-SPECIFIED
:DEGREES
179
root 20.679596 32.507145 4.088568 17.106991 -70.637317 -6.587295
Spine -2.130423 -5.700399 -1.004674
Head 26.238279 -5.346229 4.877146
LeftShoulder -13.763601 47.365038 8.801577
LeftArm 54.958665 15.468024 -74.878304
LeftForeArm -17.051711 -0.000000 7.466736
LeftHand 4.763453 -0.000000 -14.823641
LeftHandThumb1 -26.253704 0.000000 33.147579
RightShoulder -3.518685 -7.608230 -14.959058
RightArm 18.603259 -19.074501 89.150942
RightForeArm 9.154302 -0.000000 11.836768
RightHand 3.461881 -0.000000 6.998147
RightHandThumb1 -24.326973 -0.000000 -32.862282
LeftUpLeg -6.778137 4.405607 -0.825921
LeftLeg 6.350923 -0.000000 -0.000000
LeftFoot -14.147386 21.691536 -15.110490
LeftToeBase -12.706550 -0.000000 0.000000
RightUpLeg -33.569691 0.921388 -0.973971
RightLeg 26.851383 -0.000000 -0.000000
RightFoot -6.367191 -20.251646 12.629104
RightToeBase -5.684863 -0.000000 0.000000
180
root 20.776282 32.514138 4.095170 17.636178 -71.301631 -7.105359
Spine -2.185694 -5.858046 -0.914644
Head 26.334356 -5.045382 4.890640
LeftShoulder -13.752665 47.263575 8.669924
LeftArm 55.016004 15.613731 -74.718297
LeftForeArm -17.379417 -0.000000 7.645366
LeftHand 4.792414 -0.000000 -15.617599
LeftHandThumb1 -26.253704 0.000000 33.147579
RightShoulder -3.518034 -7.652111 -14.783991
RightArm 18.522009 -19.205726 89.093530
RightForeArm 9.416211 0.000000 12.107008
RightHand 3.431540 -0.000000 7.146901
RightHandThumb1 -24.326973 -0.000000 -32.862282
LeftUpLeg -6.763264 4.847074 -0.906611
LeftLeg 6.019381 -0.000000 -0.000000
LeftFoot -14.037868 21.827298 -15.108681
LeftToeBase -12.610865 -0.000000 0.000000
RightUpLeg -33.394081 1.270536 -0.593113
RightLeg 28.087712 -0.000000 -0.000000
RightFoot -7.302194 -19.769828 12.943729
RightToeBase -5.994681 -0.000000 0.000000
181
root 20.872731 32.519017 4.098614 18.176679 -71.935570 -7.616847
Spine -2.261744 -6.015820 -0.832677
Head 26.469350 -4.781230 4.905771
LeftShoulder -13.662020 47.153959 8.612896
LeftArm 55.071866 15.732114 -74.585043
LeftForeArm -17.910090 -0.000000 7.745014
LeftHand 4.859622 -0.000000 -16.119596
LeftHandThumb1 -26.253704 0.000000 33.147579
RightShoulder -3.503874 -7.716830 -14.623317
RightArm 18.459258 -19.062482 89.115150
RightForeArm 9.770254 -0.000000 12.304141
RightHand 3.414634 0.000000 7.336751
RightHandThumb1 -24.326973 -0.000000 -32.862282
LeftUpLeg -6.794274 5.340150 -0.990913
LeftLeg 5.727497 -0.000000 -0.000000
LeftFoot -13.880789 21.883875 -15.145561
LeftToeBase -12.783577 -0.000000 0.000000
RightUpLeg -33.246380 1.476038 -0.179792
RightLeg 29.325768 -0.000000 -0.000000
RightFoot -8.257058 -19.191330 13.459152
RightToeBase -6.384294 -0.000000 0.000000
182
root 20.967527 32.526193 4.096503 18.949346 -72.522852 -8.329296
Spine -2.376648 -6.185904 -0.681168
Head 26.654151 -4.519515 4.878749
LeftShoulder -13.584320 47.026863 8.540069
LeftArm 55.133376 15.849799 -74.417470
LeftForeArm -18.511857 -0.000000 7.844538
LeftHand 4.788908 -0.000000 -16.668794
LeftHandThumb1 -26.253704 0.000000 33.147579
RightShoulder -3.481778 -7.759234 -14.426164
RightArm 18.385240 -18.970962 89.092989
RightForeArm 9.873090 -0.000000 12.473631
RightHand 3.372927 0.000000 7.539356
RightHandThumb1 -24.326973 -0.000000 -32.862282
LeftUpLeg -6.863876 5.790320 -1.001517
LeftLeg 5.438315 -0.000000 -0.000000
LeftFoot -13.771600 21.869939 -15.191435
LeftToeBase -12.771170 -0.000000 0.000000
RightUpLeg -33.054879 1.789231 0.214748
RightLeg 30.388742 -0.000000 -0.000000
RightFoot -9.048647 -18.641932 13.867137
RightToeBase -6.433134 -0.000000 0.000000
183
root 21.057838 32.523090 4.113133 18.893890 -73.130118 -8.237907
Spine -2.434503 -6.345325 -0.779121
Head 26.795360 -4.286318 4.845463
LeftShoulder -13.449690 46.911030 8.562137
LeftArm 55.208669 15.950022 -74.299481
LeftForeArm -18.936334 -0.000000 7.900484
LeftHand 4.857461 0.000000 -17.305801
LeftHandThumb1 -26.253704 0.000000 33.147579
RightShoulder -3.519995 -7.809520 -14.295035
RightArm 18.283338 -19.082977 89.057039
RightForeArm 10.103803 -0.000000 12.685711
RightHand 3.366512 -0.000000 7.531781
RightHandThumb1 -24.326973 -0.000000 -32.862282
LeftUpLeg -6.799481 5.975523 -1.271375
LeftLeg 5.042716 -0.000000 -0.000000
LeftFoot -13.554445 22.172489 -15.019892
LeftToeBase -12.828108 -0.000000 0.000000
RightUpLeg -33.011712 1.588774 0.495261
RightLeg 31.862330 -0.000000 -0.000000
RightFoot -9.734146 -17.874411 13.993341
RightToeBase -6.749865 -0.000000 0.000000
184
root 21.146476 32.521831 4.124953 18.985067 -73.743375 -8.247941
Spine -2.540971 -6.485278 -0.858908
Head 26.944272 -4.048180 4.826299
LeftShoulder -13.386590 46.800803 8.562213
LeftArm 55.320217 16.068494 -74.179956
LeftForeArm -19.513365 -0.000000 7.951176
LeftHand 4.883619 -0.000000 -17.752153
LeftHandThumb1 -26.253704 0.000000 33.147579
RightShoulder -3.542606 -7.869831 -14.140089
RightArm 18.218611 -19.056118 89.046029
RightForeArm 9.990712 0.000000 12.772088
RightHand 3.424428 -0.000000 7.595199
RightHandThumb1 -24.326973 -0.000000 -32.862282
LeftUpLeg -6.789096 6.171118 -1.508264
LeftLeg 4.647801 -0.000000 -0.000000
LeftFoot -13.432580 22.439014 -15.029364
LeftToeBase -12.697452 -0.000000 0.000000
RightUpLeg -32.921626 1.607362 0.711242
RightLeg 33.098907 -0.000000 -0.000000
RightFoot -10.374268 -17.343720 14.161461
RightToeBase -7.185591 -0.000000 0.000000
